<svg xmlns="http://www.w3.org/2000/svg" fill-rule="evenodd" stroke-linejoin="round" stroke-miterlimit="2" clip-rule="evenodd" viewBox="0 0 1000 170"><defs/><g fill-rule="nonzero"><path fill="#f8a81b" d="M352.8 39.3h-46.1a5 5 0 01-2.5-.9c-3.6-2-7.6-2.9-11.7-2.8H199l-74.4-.1c-1.4-.2-2.7.7-3 2a70168.5 70168.5 0 01-52.6 130.8c-.2 1.1-1.3 1.8-2.4 1.7H11c-1.7 0-1.9-.4-1.3-1.9A28785.6 28785.6 0 0062.3 37.4c.6-1.5.5-2-1.2-2H1.9c-.6 0-1.5.5-1.8-.3-.4-.7.5-1 .9-1.5l23.6-32c.7-1 1.9-1.7 3.2-1.6l188.4.1h93.6c2.2 0 4.3.4 6.3 1.2a64.7 64.7 0 0136.7 38z"/><path d="M222 86.3h71.3c12.2 0 23-10.2 24.4-21.7.4-3.6.4-3.6 4-3.6h33c1.6 0 2.1.4 2 2a64.5 64.5 0 01-57.2 61.5c-6.6.6-13.1.3-19.7.3h-92.4a3 3 0 00-3.3 2.3l-16.6 41.4c-.3 1-1.3 1.6-2.3 1.5h-50c-1.4 0-1.9-.2-1.2-1.7a26071.7 26071.7 0 0032.1-80 2.6 2.6 0 012.9-2h73z"/><path fill="#f8a81b" d="M862.3 116H740.6l6.2-8.5L760 89.2c.6-.8 1.5-1.3 2.5-1.2H799c.5 0 1.2.1 1.4-.4.1-.5-.2-.8-.5-1.2l-23.7-33.5-1-1.2-7.8 10.7-37.4 51.5a5.1 5.1 0 01-4.8 2.3H689c0-1 .7-1.5 1.1-2.1l50.7-69.4c6.4-8.8 12.9-17.6 19.2-26.5 3-4 6.6-6.3 11.8-6 3.8.3 7.6.1 11.5.1a9.9 9.9 0 018.3 4L805.8 36l55.2 78.4 1.3 1.7zM908.7 58.6v55.7c0 1.5-.4 2-2 2h-28.2c-1.5 0-1.9-.4-1.9-1.9V14.2c0-1.5.5-2 2-2 5.6.1 11.2.2 16.7 0a13 13 0 018.9 3.3l60 49.7 3.6 3c.7-.6.4-1.3.4-2V14.4c0-1.6.4-2.2 2.2-2.1h27.8c1.5 0 1.8.3 1.8 1.7v100.4c0 1.6-.5 1.9-1.9 1.9h-15.4c-3 0-5.8-1-8-3l-57.8-47.9-8.2-6.7zM736.5 12.5L732 19l-12.8 18.4c-.7 1-1.8 1.6-3 1.5h-46.4c-2.8 0-2.8 0-2.8 2.7v72.3c0 1.8-.4 2.4-2.3 2.4-9.4-.2-18.8-.2-28.3 0-1.7 0-2-.5-2-2.1l.1-73.3c0-1.7-.5-2-2.2-2h-34.5c-1.5 0-2-.3-2-1.9V14c0-1.4.4-1.8 1.8-1.8h137.2a2 2 0 011.7.3zM394.8 38.8c2.6-3.7 5-7 7.3-10.5 3.4-4.9 7-9.7 10.3-14.7a3 3 0 012.9-1.5h104.6c1 0 1.2.3 1.2 1.2v24.2c0 1.5-1 1.3-1.9 1.3h-48c-1 0-1.5.3-1.3 1.3V114c0 1.8-.5 2.3-2.3 2.2h-28c-1.8 0-2.3-.3-2.3-2.1V41c0-2-.5-2.3-2.2-2.3h-37.9l-2.4.1zM542.7 64V14c0-1.6.3-2.1 2-2h28c1.6 0 2 .3 2 1.7v100.6c0 1.4-.4 2-1.9 1.9h-28.3c-1.5 0-1.8-.4-1.8-1.9V64.1z"/><path d="M526.7 134h-30.6-.2c-.9 0-1.6.7-1.6 1.6a1.6 1.6 0 001.8 1.6h30.3a4 4 0 014 3.9 4 4 0 01-4 4H500c-3.2 0-5.7.1-5.7 3v8a1.6 1.6 0 001.6 1.9 1.6 1.6 0 001.5-1.8v-6.7c0-.8.4-1.5 2-1.5h27.3c3.9 0 7-3.2 7-7 0-4-3.1-7.1-7-7.1zM621.4 148.9s-.6-.7.8-1.1h.2c2.9-1 4.9-3.7 4.9-6.7a7 7 0 00-7-7h-30.7-.2c-.9 0-1.6.6-1.6 1.5a1.6 1.6 0 001.8 1.6H620a4 4 0 014 4 4 4 0 01-4 3.9h-26.4c-3.2 0-5.7.2-5.7 3V156.4a1.6 1.6 0 003.2 0v-6.9c0-.8.3-1.5 2-1.5h22.3c1.3.2 2.4 1 3 2l4.6 7s.6 1.3 3.6 1c0 0 1-.2.1-1.5l-5.2-7.6zM764.2 148.9s-.6-.7.8-1.1h.1c3-1 5-3.7 5-6.7a7 7 0 00-7.1-7h-30.6-.2c-.9 0-1.6.6-1.6 1.5a1.6 1.6 0 001.8 1.6h30.3a4 4 0 014 4 4 4 0 01-4 3.9h-26.4c-3.2 0-5.7.2-5.7 3V156.4c0 1 .7 1.6 1.5 1.6a1.6 1.6 0 001.6-1.8v-6.7c0-.8.4-1.5 2-1.5h22.4c1.2.2 2.4 1 3 2l4.5 7s.7 1.3 3.7 1c0 0 1-.2.1-1.5l-5.2-7.6zM671 145h-30.9c-3.1 0-5.7.2-5.7 3V156.3a1.6 1.6 0 103.2-.2v-6.7c0-.8.3-1.5 2-1.5H671.2c.9 0 1.6-.7 1.6-1.6a1.6 1.6 0 00-1.8-1.5v.2zM672.7 134h-36.3-.2c-.9 0-1.6.7-1.6 1.6a1.6 1.6 0 001.8 1.5h36.5c.9 0 1.6-.7 1.6-1.5a1.6 1.6 0 00-1.8-1.6zM577.7 134H543h-.2c-.9 0-1.6.7-1.6 1.6a1.6 1.6 0 001.8 1.5H578c.8 0 1.6-.7 1.6-1.5a1.6 1.6 0 00-1.9-1.6zM566.4 158h-19.6c-3.2 0-5.8-.2-5.8-3v-8.5c.1-.9 1-1.6 1.8-1.5H578c.9 0 1.6.7 1.6 1.6a1.6 1.6 0 01-1.8 1.5h-31.8-.2c-.8 0-1.5.7-1.5 1.5v4c0 .8.4 1.5 2 1.5H577.8c.9 0 1.6.7 1.6 1.6a1.6 1.6 0 01-1.8 1.6M998.2 134h-34.9-.2c-.9 0-1.6.7-1.6 1.6a1.6 1.6 0 001.8 1.5h34.9a1.6 1.6 0 001.8-1.5 1.6 1.6 0 00-1.8-1.6zM998 155h-31.3c-1.6 0-2-.8-2-1.6v-4a1.5 1.5 0 011.7-1.5h32c.9 0 1.6-.7 1.6-1.5a1.6 1.6 0 00-1.8-1.6h-34.9c-.9 0-1.7.6-1.8 1.5v8.5c0 2.9 2.6 3.1 5.8 3h31c1 0 1.6-.7 1.6-1.5a1.6 1.6 0 00-1.8-1.6v.2zM710.8 134H693c-6.6 0-12 5.4-12 12s5.4 12 12 12h17.8c6.6 0 12-5.4 12-12s-5.4-12-12-12zm.1 20.8h-17.8a8.9 8.9 0 01-9.2-8.8 8.8 8.8 0 019.2-8.8h18.2c4.8 0 8.8 4 8.8 8.8a8.8 8.8 0 01-9.2 8.8zM817.6 134h-1.5c-.6.2-1.1.5-1.5 1l-.2.2L799 152a1.7 1.7 0 01-2.6 0L783 137l-2.2-2.4c-.4-.5-1-.7-1.7-.7h-1.4a1 1 0 00-1 .6v21.9a1.6 1.6 0 003.3 0V139s.1-.2.6.3l.2.2 13.9 15.2a4 4 0 006 0c2.8-2.8 11.5-12.6 14.3-15.8 0 0 .3-.2.4.2v17.3a1.6 1.6 0 003.1 0v-21.7c0-.5-.4-.8-.9-.8zM840.2 138.6a3.8 3.8 0 016.2-.2l12.4 18.6s.7 1.4 3.7 1c0 0 1-.2 0-1.5l-13-19.3a7.6 7.6 0 00-6.3-3.2 7.4 7.4 0 00-6 3.3L824 156.6c-1 1.2 0 1.5 0 1.5 3.1.4 3.8-1 3.8-1l12.2-18.4M905.7 134c-1 .1-1.6 1-1.5 1.9v17.7s-.2 1.9-2.2 1l-11.1-8.1-15.8-11.7c-1-.6-2-1-3.2-.8-1.3.1-4 .6-4 3.7v18.8a1.6 1.6 0 003.3 0V138.4s.2-1.8 2.1-.9l11.2 8.1 15.7 11.6c1 .7 2 1 3.1.8 1.4 0 4-.5 4-3.7V136v-.2c0-.9-.7-1.6-1.6-1.7zM955.3 156.3c-.1-.7-.6-1.3-1.3-1.5h-27.2a8.9 8.9 0 01-9.2-8.8 8.8 8.8 0 019.2-8.8h27c1.5-.3 1.5-1.5 1.5-1.5 0-.9-.6-1.6-1.5-1.7h-27c-6.7 0-12.1 5.4-12.1 12s5.4 12 12 12h27.1c.9 0 1.5-.8 1.5-1.7zM487 145H385.4a3 3 0 00-3 3.2h105c.8 0 1.6-.7 1.6-1.6a1.6 1.6 0 00-1.8-1.6z"/></g></svg>