<svg xmlns="http://www.w3.org/2000/svg" id="Layer_1" data-name="Layer 1" viewBox="0 0 842 299"><defs/><defs><style>.cls-1{fill:#f8a81b}.cls-1,.cls-2{fill-rule:evenodd}.cls-2,.cls-3{fill:#fff}</style></defs><path d="M324 119h-31a3 3 0 01-2 0 16 16 0 00-7-2H173a2 2 0 00-2 1l-23 57-12 30a1 1 0 01-2 1H97l-1-1 18-43 17-44c1-1 1-1-1-1H91l-1-1 1-1 15-21a2 2 0 012-1h187a11 11 0 014 1 43 43 0 0122 19 26 26 0 013 6z" class="cls-1"/><path d="M237 150h47c8 0 15-6 16-14 1-2 1-2 3-2h22l1 1a43 43 0 01-28 39 38 38 0 01-10 2h-74a2 2 0 00-2 2l-11 27a1 1 0 01-2 1h-33l-1-1 19-46 3-7a2 2 0 012-2h48z" class="cls-2"/><path d="M661 170h-81l4-5 9-13a2 2 0 012 0h24l1-1-1-1-15-22-1-1-5 8-25 34a3 3 0 01-3 1h-24l1-1 33-46 13-18c2-3 4-4 8-4h7a7 7 0 016 3l9 13 37 52 1 1zM691 132v37l-1 1h-19l-1-1v-67l1-1h12a9 9 0 015 2l40 33 2 2 1-1v-34l1-2a1033 1033 0 0020 1v67l-1 1h-11a8 8 0 01-5-2l-38-32-6-4zM577 101l-3 5-8 12a2 2 0 01-2 1h-31c-2 0-2 0-2 2v48l-1 1h-19l-1-1v-49l-1-1h-23l-2-1v-16l2-1h90a1 1 0 011 0zM351 119l5-7 7-10a2 2 0 012-1h69l1 1v16l-1 1h-32l-1 1a8 8 0 010 1v48l-1 1h-19l-2-1v-49c1-1 0-1-1-1h-25zM449 136v-34l2-1a1046 1046 0 0019 1v67l-1 1h-19l-1-1v-33z" class="cls-1"/><path d="M439 182h-21a1 1 0 100 2h20a3 3 0 010 6h-17c-2 0-4 0-4 2v5a1 1 0 102 0v-5l2-1h18a5 5 0 000-9zM501 192l1-1a5 5 0 00-2-9h-20a1 1 0 100 2h20a3 3 0 010 6h-17c-2 0-4 0-4 2v5a1 1 0 102 0v-4l1-1h15a3 3 0 012 1l3 4 3 1v-1l-4-5zM596 192v-1a5 5 0 00-1-9h-20a1 1 0 100 2h20a3 3 0 010 6h-18c-2 0-4 0-4 2l1 5a1 1 0 102 0v-4l1-1h15a3 3 0 012 1l3 4 2 1v-1l-3-5zM534 189h-20l-4 2v6a1 1 0 102 0v-5l1-1h21a1 1 0 100-2zM535 182h-24a1 1 0 100 2h24a1 1 0 100-2zM472 182h-23a1 1 0 100 2h23a1 1 0 100-2zM465 198h-13c-2 0-4 0-4-2v-5-1a1 1 0 011-1h23a1 1 0 110 3h-21a1 1 0 00-1 1v2l2 1h20a1 1 0 110 2M751 182h-23a1 1 0 100 2h23a1 1 0 100-2zM751 196h-21l-2-1v-3a1 1 0 012-1h21a1 1 0 100-2h-23a1 1 0 00-2 1v6c0 2 2 2 4 2h21a1 1 0 100-2zM560 182h-11a8 8 0 100 16h11a8 8 0 100-16zm1 14h-12a6 6 0 110-12h12a6 6 0 110 12zM631 182h-1a2 2 0 00-1 1l-10 11a1 1 0 01-2 0l-9-10-1-1a2 2 0 00-1-1h-1a1 1 0 00-1 1v14a1 1 0 102 0v-11h1l9 10a3 3 0 004 0l9-10h1v11a1 1 0 102 0v-14a1 1 0 00-1-1zM646 185a2 2 0 014 0l8 12 3 1v-1l-9-13a5 5 0 00-4-2 5 5 0 00-4 2l-9 13v1h3l8-13M689 182a1 1 0 00-1 1v12s0 1-1 1l-7-6-11-7a3 3 0 00-2-1c-1 0-3 1-3 3v12a1 1 0 103 0v-12s0-1 1 0l7 5 11 8a3 3 0 002 0c1 0 2 0 2-2v-13a1 1 0 00-1-1zM722 197a1 1 0 00-1-1h-18a6 6 0 110-12h18l1-1a1 1 0 00-1-1h-18a8 8 0 100 16h18a1 1 0 001-1z" class="cls-3"/><path d="M412 190h-67a2 2 0 00-2 2h69a1 1 0 100-2z" class="cls-2"/></svg>