<?xml version="1.0" encoding="UTF-8" standalone="no"?>
<!DOCTYPE svg PUBLIC "-//W3C//DTD SVG 1.1//EN" "http://www.w3.org/Graphics/SVG/1.1/DTD/svg11.dtd">
<svg width="100%" height="100%" viewBox="0 0 297 258" version="1.1" xmlns="http://www.w3.org/2000/svg" xmlns:xlink="http://www.w3.org/1999/xlink" xml:space="preserve" xmlns:serif="http://www.serif.com/" style="fill-rule:evenodd;clip-rule:evenodd;stroke-linejoin:round;stroke-miterlimit:2;">
    <g transform="matrix(1,0,0,1,-3.82919,-2.25004)">
        <g transform="matrix(4.16667,0,0,4.16667,0,0)">
            <path d="M40.7,43.92L40.339,43.081C40.28,42.84 40.099,42.72 39.919,42.72L38.419,42.96L34.459,44.701L32.299,45.781C31.94,46.02 31.7,46.321 31.639,46.741L31.639,48.3C31.7,49.561 32.419,50.641 33.799,51.661L42.019,59.04C43.16,59.701 43.639,59.34 43.519,57.96L40.7,43.92Z" style="fill:rgb(29,58,110);"/>
            <path d="M56.599,36.061C56.299,34.44 55.46,33.36 54.2,32.94C53.419,32.46 52.639,32.641 51.799,33.42C51.44,33.96 50.96,34.561 50.299,35.161C49.639,35.821 48.86,36.36 48.019,36.781L46.94,37.741C46.639,37.92 46.519,38.1 46.58,38.34L47.48,39.481L49.16,40.44L56.78,48.781C57.379,49.561 57.98,49.741 58.639,49.38C59.24,49.02 59.36,48.18 59.059,46.92L56.599,36.061Z" style="fill:rgb(29,58,110);"/>
            <path d="M40.519,11.82C37.04,12.3 33.259,13.741 29.179,16.141C25.16,18.601 21.919,21.121 19.4,23.701C16.82,26.34 15.139,28.86 14.24,31.26C13.339,33.72 13.28,35.94 14.179,37.92C14.719,39 15.32,39.54 15.919,39.481C16.58,39.42 17.059,38.94 17.419,38.1C18.32,35.46 20.12,32.76 22.759,30C25.339,27.3 28.519,24.84 32.419,22.681C36.32,20.46 39.86,19.02 43.16,18.36L51.679,18.661L52.46,18.781L53.299,18.661C53.54,18.48 53.839,18 54.2,17.34C54.259,16.8 54.2,16.201 54.139,15.601C54.019,15 53.78,14.46 53.36,13.98C52.94,13.081 51.559,12.42 49.28,11.88C46.94,11.281 44.059,11.281 40.519,11.82Z" style="fill:rgb(29,58,110);"/>
            <path d="M61.219,2.82L59.059,2.281C58.4,2.101 57.62,2.46 56.66,3.3L54.379,5.281C53.12,6.54 51.98,7.02 50.96,6.781C50.12,6.36 49.7,5.94 49.7,5.641L50.299,3.661C50.599,2.94 50.719,2.281 50.66,1.681C50.599,1.081 50.24,0.72 49.46,0.54L46.16,0.84L44.599,1.32L43.82,1.98L42.86,3.3L41.66,5.34C41.36,5.82 41.059,6.181 40.759,6.48C40.4,6.781 39.679,7.141 38.66,7.44C37.459,7.86 36.679,7.98 36.379,7.681C36.08,7.44 35.959,6.96 35.959,6.3L35.839,4.621C35.78,4.26 35.54,4.081 35.12,4.081L33.08,4.561L29.9,5.88C27.86,6.661 27.019,7.741 27.44,9.181L27.74,11.22C27.74,11.641 27.2,12.181 26.12,12.84C25.099,13.5 24.259,13.92 23.719,14.101L21.2,13.86C19.94,12.601 18.259,12.84 16.219,14.581L13.759,16.86C12.86,17.641 12.44,18.36 12.559,18.9C12.62,19.44 12.98,19.86 13.58,20.101C14.48,20.52 14.9,20.88 14.9,21.181C14.839,21.48 14.48,22.02 13.759,22.741L12.44,24.241L11.419,24.9C11.059,25.081 10.519,25.201 9.799,25.26C8.66,24.96 7.639,25.02 6.74,25.561C5.9,26.04 5.179,26.94 4.639,28.32L3.559,30.781C3.259,31.32 3.259,31.681 3.559,31.86C3.74,32.1 4.339,32.161 5.36,32.1C6.62,32.04 7.4,32.04 7.7,32.1C8,32.161 7.94,32.641 7.519,33.54L6.86,35.161C6.74,35.46 6.5,35.701 6.2,35.88C5.9,36.121 5.419,36.42 4.7,36.72L2.96,37.44C1.7,37.981 0.98,38.88 0.919,40.201L1.04,42.481C1.46,43.8 2.24,44.1 3.379,43.321L5.66,42.3C6.559,41.94 7.28,41.76 7.7,41.76C8.12,41.821 8.48,42.061 8.9,42.481C8.96,43.141 8.839,43.68 8.66,43.981L7.7,45.121L6.44,46.44C5.54,47.1 5.12,47.76 5.179,48.42C5.179,49.141 5.48,49.86 6.019,50.52L12.379,57.781C12.86,58.141 13.099,58.201 13.099,58.02C13.099,57.84 12.98,57.6 12.74,57.3L9.86,53.161C9.559,52.5 9.44,51.901 9.62,51.3C9.74,50.701 10.219,50.161 11,49.68L13.759,47.46L15.08,46.741L16.28,46.44L17.78,46.621C18.2,46.8 18.32,46.981 18.2,47.281L17.719,48.3L16.58,50.46C15.679,52.02 15.799,53.22 16.879,54.121L26.48,61.92C26.78,62.281 27.139,62.46 27.559,62.46C27.98,62.46 28.219,62.281 28.4,61.981C28.639,61.68 28.58,61.321 28.219,60.84L26.179,57.84L24.259,54.84C23.719,54.061 23.36,53.281 23.299,52.5C23.179,51.72 23.48,50.94 24.259,50.04C25.04,48.72 25.4,47.94 25.219,47.641C25.04,47.46 24.559,47.34 23.78,47.401L20.9,46.86C20.419,46.621 20.299,46.5 20.48,46.44L21.32,46.44C23.059,46.621 24.919,46.44 26.96,45.96C29.059,45.54 31.099,44.88 33.139,44.04C35.24,43.201 37.219,42.3 38.96,41.281C42.259,39.36 45.2,37.201 47.78,34.8C50.36,32.46 52.339,30 53.839,27.42C55.339,24.96 56.24,22.5 56.54,20.101C56.48,19.44 56.299,19.02 55.879,18.84C55.519,18.661 55.339,19.081 55.28,20.101C54.5,22.44 53.12,24.84 51.08,27.241C49.04,29.701 46.519,32.04 43.46,34.26L39.799,36.6L36.08,38.581C32.419,40.321 29,41.46 25.759,42C22.46,42.54 19.639,42.481 17.299,41.821C14.96,41.161 13.28,39.901 12.259,37.981C11.36,35.94 11.48,33.6 12.559,30.9C13.7,28.081 15.559,25.26 18.259,22.44C21.019,19.621 24.379,17.04 28.4,14.76C32,12.72 35.54,11.281 38.96,10.38C42.379,9.48 45.44,9.241 48.139,9.54C50.36,9.72 52.339,10.32 54.019,11.22C55.759,12.121 56.96,13.38 57.74,15.061C58.519,16.5 58.879,18.061 58.82,19.8C58.759,21.54 58.28,23.34 57.259,25.201C56.719,26.22 56.66,26.94 57.019,27.36C57.44,27.781 58.28,27.9 59.54,27.601C61.46,27.54 62.66,28.081 63.08,29.161L67.7,35.46L68.719,35.581C68.9,35.281 68.839,34.68 68.54,33.72L66.019,22.741C65.599,21.3 64.519,20.641 62.78,20.701L60.379,20.76C59.66,20.76 59.419,20.22 59.66,19.201C60.019,17.94 60.679,17.101 61.7,16.561L65.24,15.181C66.919,14.52 68.12,15.121 68.78,16.98L71.54,22.681C72.139,23.4 72.139,22.98 71.599,21.42L67.94,12.061C67.04,9.48 65.36,8.82 62.9,10.201L60.019,11.4C59.36,11.701 58.82,11.52 58.4,10.86C57.919,10.201 57.86,9.72 58.219,9.42L60.32,7.561L62.299,5.88C63.379,4.741 63.019,3.72 61.219,2.82Z" style="fill:rgb(29,58,110);"/>
        </g>
    </g>
</svg>
