<?xml version="1.0" encoding="UTF-8" standalone="no"?>
<!DOCTYPE svg PUBLIC "-//W3C//DTD SVG 1.1//EN" "http://www.w3.org/Graphics/SVG/1.1/DTD/svg11.dtd">
<svg width="100%" height="100%" viewBox="0 0 500 500" version="1.1" xmlns="http://www.w3.org/2000/svg" xmlns:xlink="http://www.w3.org/1999/xlink" xml:space="preserve" xmlns:serif="http://www.serif.com/" style="fill-rule:evenodd;clip-rule:evenodd;stroke-linejoin:round;stroke-miterlimit:2;">
    <g transform="matrix(1,0,0,1,-1151.34,-580)">
        <g id="phone" transform="matrix(0.561299,0,0,0.561299,1151.22,579.882)">
            <path d="M3,181C49,315 148,467 286,605C424,743 576,842 710,888C728,894 748,890 762,876L855,784L876,762C896,743 896,711 876,691L733,548C723.615,538.538 710.827,533.21 697.5,533.21C684.173,533.21 671.385,538.538 662,548L623,587C602.631,606.852 570.365,608.573 548,591C455.444,518.853 372.147,435.556 300,343C282.427,320.635 284.148,288.369 304,268L343,229C363,209 363,178 343,158L200,15C190.615,5.538 177.827,0.21 164.5,0.21C151.173,0.21 138.385,5.538 129,15L107,36L15,129C1.334,142.548 -3.347,162.833 3,181Z" style="fill-rule:nonzero;"/>
        </g>
    </g>
</svg>
