<?xml version="1.0" encoding="UTF-8" standalone="no"?>
<!DOCTYPE svg PUBLIC "-//W3C//DTD SVG 1.1//EN" "http://www.w3.org/Graphics/SVG/1.1/DTD/svg11.dtd">
<svg width="100%" height="100%" viewBox="0 0 501 501" version="1.1" xmlns="http://www.w3.org/2000/svg" xmlns:xlink="http://www.w3.org/1999/xlink" xml:space="preserve" xmlns:serif="http://www.serif.com/" style="fill-rule:evenodd;clip-rule:evenodd;stroke-linejoin:round;stroke-miterlimit:2;">
    <g transform="matrix(1,0,0,1,-793,-299)">
        <g id="tiktok" transform="matrix(0.2,0,0,0.2,793.336,299.799)">
            <path d="M250,0L2250,0C2388.08,0 2500,111.92 2500,250L2500,2250C2500,2388.08 2388.08,2500 2250,2500L250,2500C111.92,2500 0,2388.08 0,2250L0,250C0,111.92 111.92,0 250,0Z" style="fill:rgb(1,1,1);"/>
            <path d="M1569.8,2300C1645.87,2300 1707.54,2238.83 1707.54,2163.38C1707.54,2087.93 1645.87,2026.75 1569.8,2026.75L1549.05,2026.75C1625.12,2026.75 1686.79,2087.93 1686.79,2163.38C1686.79,2238.83 1625.12,2300 1549.05,2300L1569.8,2300Z" style="fill:rgb(238,29,81);"/>
            <path d="M1547.17,2026.75L1526.42,2026.75C1450.35,2026.75 1388.67,2087.93 1388.67,2163.38C1388.67,2238.83 1450.35,2300 1526.42,2300L1547.17,2300C1471.09,2300 1409.42,2238.83 1409.42,2163.38C1409.42,2087.93 1471.09,2026.75 1547.17,2026.75Z" style="fill:rgb(102,200,207);"/>
            <ellipse cx="1548.11" cy="2163.38" rx="66.99" ry="66.43" style="fill:rgb(1,1,1);"/>
            <path d="M500,1965L500,2034.25L581.12,2034.25L581.12,2298.13L662.27,2298.13L662.27,2036.12L728.3,2036.12L750.94,1965L500,1965ZM1164.15,1965L1164.15,2034.25L1245.27,2034.25L1245.27,2298.13L1326.42,2298.13L1326.42,2036.12L1392.45,2036.12L1415.09,1965L1164.15,1965ZM766.05,2004.3C766.05,1982.6 783.76,1965 805.64,1965C827.54,1965 845.27,1982.6 845.27,2004.3C845.27,2026 827.55,2043.6 805.64,2043.6C783.76,2043.59 766.05,2026 766.05,2004.3ZM766.05,2071.68L845.27,2071.68L845.27,2298.13L766.05,2298.13L766.05,2071.68ZM879.24,1965L879.24,2298.13L958.49,2298.13L958.49,2212.05L983.02,2189.57L1060.37,2300L1145.27,2300L1033.94,2139.05L1133.94,2041.72L1037.72,2041.72L958.49,2120.32L958.49,1965L879.24,1965ZM1733.94,1965L1733.94,2298.13L1813.2,2298.13L1813.2,2212.05L1837.72,2189.57L1915.09,2300L2000,2300L1888.67,2139.05L1988.67,2041.72L1892.45,2041.72L1813.2,2120.32L1813.2,1965L1733.94,1965Z" style="fill:white;"/>
            <path d="M1611.67,811.86C1721.11,890.05 1855.19,936.06 1999.99,936.06L1999.99,657.55C1972.58,657.561 1945.25,654.702 1918.44,649.02L1918.44,868.25C1773.65,868.25 1639.59,822.24 1530.12,744.05L1530.12,1312.4C1530.12,1596.72 1299.52,1827.19 1015.07,1827.19C908.94,1827.19 810.29,1795.12 728.34,1740.12C821.87,1835.7 952.3,1895 1096.6,1895C1381.07,1895 1611.68,1664.53 1611.68,1380.2L1611.68,811.86L1611.67,811.86ZM1712.27,530.88C1656.34,469.81 1619.62,390.88 1611.67,303.62L1611.67,267.8L1534.39,267.8C1553.84,378.7 1620.19,473.45 1712.27,530.88ZM908.25,1521.95C877.01,1481.01 860.115,1430.89 860.19,1379.39C860.19,1249.35 965.67,1143.92 1095.8,1143.92C1120.05,1143.9 1144.15,1147.62 1167.27,1154.95L1167.27,870.22C1140.26,866.521 1113,864.953 1085.75,865.53L1085.75,1087.15C1062.62,1079.82 1038.51,1076.1 1014.25,1076.12C884.12,1076.12 778.65,1181.55 778.65,1311.6C778.65,1403.55 831.37,1483.17 908.25,1521.95Z" style="fill:rgb(238,29,82);"/>
            <path d="M1530.12,744.05C1639.59,822.24 1773.65,868.25 1918.44,868.25L1918.44,649.02C1837.62,631.82 1766.07,589.6 1712.27,530.88C1620.19,473.45 1553.84,378.7 1534.39,267.8L1331.4,267.8L1331.4,1380.19C1330.94,1509.87 1225.64,1614.87 1095.79,1614.87C1019.27,1614.87 951.29,1578.42 908.24,1521.95C831.36,1483.17 778.64,1403.55 778.64,1311.6C778.64,1181.55 884.11,1076.12 1014.24,1076.12C1039.17,1076.12 1063.2,1080 1085.74,1087.15L1085.74,865.53C806.29,871.3 581.54,1099.52 581.54,1380.2C581.54,1520.31 637.51,1647.33 728.34,1740.13C810.29,1795.13 908.94,1827.2 1015.07,1827.2C1299.52,1827.2 1530.12,1596.72 1530.12,1312.41L1530.12,744.05Z" style="fill:white;"/>
            <path d="M1918.44,649.02L1918.44,589.74C1845.56,589.85 1774.1,569.445 1712.27,530.87C1767,590.759 1839.1,632.077 1918.44,649.02ZM1534.39,267.8C1532.53,257.203 1531.11,246.534 1530.12,235.82L1530.12,200L1249.84,200L1249.84,1312.4C1249.39,1442.07 1144.1,1547.07 1014.24,1547.07C976.11,1547.07 940.12,1538.03 908.24,1521.95C951.29,1578.42 1019.27,1614.87 1095.79,1614.87C1225.63,1614.87 1330.94,1509.87 1331.4,1380.19L1331.4,267.8L1534.39,267.8ZM1085.75,865.53L1085.75,802.42C1062.33,799.218 1038.72,797.618 1015.08,797.63C730.6,797.63 500,1028.11 500,1312.4C500,1490.64 590.63,1647.72 728.35,1740.12C637.52,1647.32 581.55,1520.3 581.55,1380.19C581.55,1099.52 806.29,871.3 1085.75,865.53Z" style="fill:rgb(105,201,208);"/>
            <path d="M1549.04,2300C1625.11,2300 1686.79,2238.83 1686.79,2163.38C1686.79,2087.93 1625.11,2026.75 1549.04,2026.75L1547.16,2026.75C1471.09,2026.75 1409.42,2087.93 1409.42,2163.38C1409.42,2238.83 1471.09,2300 1547.16,2300L1549.04,2300ZM1481.12,2163.38C1481.12,2126.68 1511.12,2096.95 1548.12,2096.95C1585.09,2096.95 1615.09,2126.68 1615.09,2163.38C1615.09,2200.08 1585.09,2229.83 1548.12,2229.83C1511.12,2229.82 1481.12,2200.08 1481.12,2163.38Z" style="fill:white;"/>
        </g>
    </g>
</svg>
